<svg id="icon-edit" xmlns="http://www.w3.org/2000/svg" width="10.056" height="10.049" viewBox="0 0 10.056 10.049">
  <g id="Path_3" data-name="Path 3" transform="translate(-2.994 -2.014)" fill="none">
    <path d="M4,8.04a.5.5,0,0,1,.151-.352L9.681,2.158a.5.5,0,0,1,.7,0l1.508,1.508a.5.5,0,0,1,0,.7L6.363,9.9a.5.5,0,0,1-.352.151H4.5a.5.5,0,0,1-.5-.5Z" stroke="none"/>
    <path d="M 5.798042774200439 9.051596641540527 L 10.83146286010742 4.018176555633545 L 10.03342247009277 3.220136404037476 L 5.000002861022949 8.253556251525879 L 5.000002861022949 9.051596641540527 L 5.798042774200439 9.051596641540527 M 6.011142730712891 10.05159664154053 L 4.502782821655273 10.05159664154053 C 4.225102424621582 10.05159664154053 4.000002861022949 9.826496124267578 4.000002861022949 9.548816680908203 L 4.000002861022949 8.040456771850586 C 4.001892566680908 7.907836437225342 4.056102752685547 7.781336307525635 4.150832653045654 7.688506603240967 L 9.681472778320313 2.157866477966309 C 9.779227256774902 2.062051296234131 9.906327247619629 2.014143943786621 10.03342628479004 2.014143943786621 C 10.16052532196045 2.014143943786621 10.28762245178223 2.062051296234131 10.38537311553955 2.157866477966309 L 11.89373302459717 3.666226387023926 C 12.08536243438721 3.8617262840271 12.08536243438721 4.17461633682251 11.89373302459717 4.370126247406006 L 6.363092422485352 9.900766372680664 C 6.270262718200684 9.99549674987793 6.143762588500977 10.04970645904541 6.011142730712891 10.05159664154053 Z" stroke="none" fill="#1d55a5"/>
  </g>
  <g id="Rectangle_1" data-name="Rectangle 1" transform="translate(0 9.043)" fill="none" stroke="#1d55a5" stroke-width="1">
    <rect width="10.056" height="1.006" rx="0.503" stroke="none"/>
    <rect x="0.5" y="0.5" width="9.056" height="0.006" rx="0.003" fill="none"/>
  </g>
</svg>
