<svg xmlns="http://www.w3.org/2000/svg" width="11.378" height="12.53" viewBox="0 0 11.378 12.53">
  <g id="Icon_feather-box" data-name="Icon feather-box" transform="translate(-3.972 -2.486)">
    <path id="Path_21956" data-name="Path 21956" d="M14.821,11.029V6.442a1.147,1.147,0,0,0-.573-.992L10.234,3.157a1.147,1.147,0,0,0-1.147,0L5.073,5.45a1.147,1.147,0,0,0-.573.992v4.587a1.147,1.147,0,0,0,.573.992l4.014,2.294a1.147,1.147,0,0,0,1.147,0l4.014-2.294a1.147,1.147,0,0,0,.573-.992Z" fill="none" stroke="#1650a3" stroke-linecap="round" stroke-linejoin="round" stroke-width="1"/>
    <path id="Path_21957" data-name="Path 21957" d="M4.905,10.44l5.006,2.9,5.006-2.9" transform="translate(-0.25 -4.594)" fill="none" stroke="#1650a3" stroke-linecap="round" stroke-linejoin="round" stroke-width="1"/>
    <path id="Path_21958" data-name="Path 21958" d="M18,23.78V18" transform="translate(-8.339 -9.264)" fill="none" stroke="#1650a3" stroke-linecap="round" stroke-linejoin="round" stroke-width="1"/>
  </g>
</svg>
