<svg xmlns="http://www.w3.org/2000/svg" width="22.5" height="22.5" viewBox="0 0 22.5 22.5">
  <path id="Icon" d="M15.81,22.5H3.648A3.653,3.653,0,0,1,0,18.851V6.689A3.652,3.652,0,0,1,3.648,3.041h8.088a6.328,6.328,0,0,0-.174,1.216H3.648A2.435,2.435,0,0,0,1.216,6.689V18.851a2.435,2.435,0,0,0,2.432,2.432H15.81a2.435,2.435,0,0,0,2.433-2.432V10.938a6.427,6.427,0,0,0,1.216-.174v8.087A3.653,3.653,0,0,1,15.81,22.5ZM17.939,9.121A4.561,4.561,0,1,1,22.5,4.561,4.566,4.566,0,0,1,17.939,9.121Z" fill="#1650a3"/>
</svg>
