<svg xmlns="http://www.w3.org/2000/svg" width="16.212" height="16.212" viewBox="0 0 16.212 16.212">
  <path id="LOG_IN" data-name="LOG IN" d="M10.916,17.4a.811.811,0,0,1-.811.811h-7.3A.811.811,0,0,1,2,17.4V2.811A.811.811,0,0,1,2.811,2h7.3a.811.811,0,0,1,0,1.621H3.621V16.59h6.485A.811.811,0,0,1,10.916,17.4ZM17.4,9.3H8.006L9.863,7.439A.811.811,0,0,0,8.72,6.3L5.477,9.538h0a.811.811,0,0,0,0,1.143h0L8.72,13.924a.811.811,0,0,0,1.143-1.143L8.006,10.916H17.4a.811.811,0,0,0,0-1.621Z" transform="translate(-2 -2)" fill="#fff"/>
</svg>
