<svg xmlns="http://www.w3.org/2000/svg" width="20" height="20" viewBox="0 0 20 20"><defs><style>.a{fill:none;stroke:#384364;stroke-linecap:round;stroke-linejoin:round;stroke-width:2px;}.b{fill:#384364;}</style></defs><g transform="translate(1 1)"><rect class="a" width="18" height="18" rx="2" transform="translate(0)"/><path class="a" d="M9,3V21" transform="translate(1 -3)"/><path class="b" d="M17.8,5A1.787,1.787,0,0,0,16,6.769a2.29,2.29,0,0,0,.733,1.69s0,.008,0,.011.061.066.113.135h1.9c.023-.031.059-.08.068-.09s.023-.034.023-.034a2.294,2.294,0,0,0,.766-1.713A1.787,1.787,0,0,0,17.8,5Zm-.766,3.967a1.071,1.071,0,0,1,.045.124v.935c0,.419.009.939.011,1.1h1.431V9.068c.01-.038.032-.067.045-.1Zm.045,2.524V17a.187.187,0,0,0,.18.18h1.082a.187.187,0,0,0,.18-.18V11.491Z" transform="translate(-3.606 -2)"/></g></svg>