<svg xmlns="http://www.w3.org/2000/svg" width="21.67" height="15.212" viewBox="0 0 21.67 15.212">
  <g id="Group_10026" data-name="Group 10026" transform="translate(-2.66 -6.911)">
    <path id="Path_21955" data-name="Path 21955" d="M13.782,7.024a.743.743,0,0,1,.454.3l4.234,5.646L22.7,7.326A.953.953,0,0,1,23.3,7a.854.854,0,0,1,.866.813V20.842a.859.859,0,0,1-.814.814H7.071a.844.844,0,0,1-.616-1.348.825.825,0,0,1,.462-.266.814.814,0,0,1,.154-.015h15.47V10.257l-3.42,4.56a.851.851,0,0,1-1.3,0L13.585,9.171,9.351,14.816s-.791.618-1.3,0l-3.42-4.56V20.842a.953.953,0,0,1-.281.616A.844.844,0,0,1,3.225,21.4.812.812,0,0,1,3,20.842V7.814a.844.844,0,0,1,1.361-.6.825.825,0,0,1,.105.115L8.7,12.971l4.234-5.646.05-.061a.807.807,0,0,1,.118-.106A.816.816,0,0,1,13.545,7,.621.621,0,0,1,13.782,7.024Z" transform="translate(-0.09 0.161)" fill="#384364" stroke="#384364" stroke-width="0.5"/>
  </g>
</svg>
