<svg id="Group_10024" data-name="Group 10024" xmlns="http://www.w3.org/2000/svg" width="25.378" height="25.378" viewBox="0 0 25.378 25.378">
  <path id="Path_21949" data-name="Path 21949" d="M0,0H25.378V25.378H0Z" fill="none"/>
  <path id="Path_21950" data-name="Path 21950" d="M24.264,12.6l-2.58-2.94.36-3.891L18.226,4.9l-2-3.363-3.6,1.544L9.037,1.54l-2,3.363-3.817.857.36,3.891L1,12.6l2.58,2.94-.36,3.9,3.817.867,2,3.363,3.6-1.554,3.6,1.544,2-3.363,3.817-.867-.36-3.891Zm-4.769,2.231.275,2.95-2.9.656L15.36,20.986l-2.728-1.174L9.9,20.986,8.391,18.438l-2.9-.656.275-2.961L3.813,12.6l1.956-2.242-.275-2.94,2.9-.645L9.9,4.226l2.728,1.163L15.36,4.215l1.512,2.548,2.9.656-.275,2.95L21.451,12.6Zm-7.92.941h2.115v2.115H11.574Zm0-8.459h2.115v6.345H11.574Z" transform="translate(0.057 0.088)" fill="#384364"/>
</svg>
