<svg xmlns="http://www.w3.org/2000/svg" width="23.604" height="24.985" viewBox="0 0 23.604 24.985">
  <path id="svg11" d="M158.676,134.39a11.854,11.854,0,0,0-6.281-6.281c-.013-.006-.025-.009-.038-.016a7.782,7.782,0,1,0-9.115,0c-.013.006-.025.009-.038.016A11.8,11.8,0,0,0,136,138.728a.251.251,0,0,0,.251.257h1.883a.251.251,0,0,0,.251-.245,9.42,9.42,0,0,1,18.833,0,.249.249,0,0,0,.251.245h1.883a.251.251,0,0,0,.251-.257A11.7,11.7,0,0,0,158.676,134.39ZM147.8,127.183a5.4,5.4,0,1,1,3.817-1.582A5.364,5.364,0,0,1,147.8,127.183Z" transform="translate(-135.998 -114)" fill="#384364" stroke="#384364" stroke-width="0"/>
</svg>
