<svg xmlns="http://www.w3.org/2000/svg" width="16.902" height="19.206" viewBox="0 0 16.902 19.206">
  <path id="svg12" d="M176.133,116.8h-3.265v-.384a4.417,4.417,0,1,0-8.835,0v.384h-3.265a.767.767,0,0,0-.768.768v12.868a.767.767,0,0,0,.768.768h15.365a.767.767,0,0,0,.768-.768V117.57A.767.767,0,0,0,176.133,116.8Zm-10.371-.384a2.689,2.689,0,0,1,5.378,0v.384h-5.378Zm9.411,13.06H161.729V118.53h2.3v2.113a.193.193,0,0,0,.192.192h1.344a.193.193,0,0,0,.192-.192V118.53h5.378v2.113a.193.193,0,0,0,.192.192h1.344a.193.193,0,0,0,.192-.192V118.53h2.3Z" transform="translate(-160 -112)" fill="#384364" stroke="#384364" stroke-width="0"/>
</svg>
