<svg id="XMLID_142_" xmlns="http://www.w3.org/2000/svg" width="10.39" height="11.278" viewBox="0 0 10.39 11.278">
  <path id="XMLID_574_" d="M40.009,14.431l-1.3-1.3a.419.419,0,0,0-.607,0l-1.3,1.3a.429.429,0,1,0,.607.607l.564-.564v7.634a1.278,1.278,0,0,1-1.3,1.3H34.934a.434.434,0,1,0,0,.868h1.735a2.148,2.148,0,0,0,2.169-2.169V14.475l.564.564a.419.419,0,0,0,.607,0A.419.419,0,0,0,40.009,14.431Z" transform="translate(-29.749 -13)" fill="#1650a3"/>
  <path id="XMLID_575_" d="M4.97,13.868H6.705a.434.434,0,0,0,0-.868H4.97A2.148,2.148,0,0,0,2.8,15.169V22.8l-.564-.564a.429.429,0,1,0-.607.607l1.3,1.3a.419.419,0,0,0,.607,0l1.3-1.3a.429.429,0,1,0-.607-.607l-.564.564V15.169A1.278,1.278,0,0,1,4.97,13.868Z" transform="translate(-1.5 -13)" fill="#1650a3"/>
</svg>
