<svg id="XMLID_142_" xmlns="http://www.w3.org/2000/svg" width="29.21" height="16.51" viewBox="0 0 29.21 16.51">
  <path id="XMLID_571_" d="M20.485,15a6.985,6.985,0,1,0,6.985,6.985A6.965,6.965,0,0,0,20.485,15Zm0,6.35a2.547,2.547,0,0,1,2.54,2.54,2.59,2.59,0,0,1-1.905,2.477v.762a.6.6,0,0,1-.635.635h0a.6.6,0,0,1-.635-.635v-.762a2.534,2.534,0,0,1-1.905-2.477.635.635,0,1,1,1.27,0,1.27,1.27,0,1,0,1.27-1.27,2.547,2.547,0,0,1-2.54-2.54A2.59,2.59,0,0,1,19.85,17.6v-.7a.6.6,0,0,1,.635-.635h0a.6.6,0,0,1,.635.635v.7a2.534,2.534,0,0,1,1.905,2.477.635.635,0,1,1-1.27,0,1.261,1.261,0,0,0-1.207-1.27h-.127a1.261,1.261,0,0,0-1.207,1.27A1.274,1.274,0,0,0,20.485,21.35Z" transform="translate(-5.88 -13.73)" fill="#1650a3"/>
  <path id="XMLID_574_" d="M42.565,15.1,40.66,13.191a.614.614,0,0,0-.889,0L37.866,15.1a.629.629,0,1,0,.889.889l.826-.826V26.335a1.871,1.871,0,0,1-1.905,1.905h-2.54a.635.635,0,1,0,0,1.27h2.54a3.144,3.144,0,0,0,3.175-3.175V15.159l.826.826a.614.614,0,0,0,.889,0A.614.614,0,0,0,42.565,15.1Z" transform="translate(-13.545 -13)" fill="#1650a3"/>
  <path id="XMLID_575_" d="M6.58,14.27H9.12a.635.635,0,1,0,0-1.27H6.58a3.144,3.144,0,0,0-3.175,3.175V27.351l-.826-.826a.629.629,0,1,0-.889.889L3.6,29.32a.614.614,0,0,0,.889,0L6.39,27.415a.629.629,0,1,0-.889-.889l-.826.826V16.175A1.871,1.871,0,0,1,6.58,14.27Z" transform="translate(-1.5 -13)" fill="#1650a3"/>
</svg>
